<?xml version="1.0" standalone="no"?><!DOCTYPE svg PUBLIC "-//W3C//DTD SVG 1.1//EN" "http://www.w3.org/Graphics/SVG/1.1/DTD/svg11.dtd"><svg t="1741835414230" class="icon" viewBox="0 0 1024 1024" version="1.1" xmlns="http://www.w3.org/2000/svg" p-id="2317" xmlns:xlink="http://www.w3.org/1999/xlink" width="200" height="200"><path d="M0 0h1024v1024H0z" fill="#FCFAFB" p-id="2318"></path><path d="M512.188166 536.649761m-371.816244 0a371.816244 371.816244 0 1 0 743.632488 0 371.816244 371.816244 0 1 0-743.632488 0Z" fill="#FFAC48" p-id="2319"></path><path d="M512.188166 927.282617c-215.262036 0-390.632856-175.37082-390.632855-390.632856S296.92613 146.016906 512.188166 146.016906s390.632856 175.37082 390.632856 390.632855-175.37082 390.632856-390.632856 390.632856z m0-743.632488c-194.563763 0-352.999632 158.435869-352.999632 352.999632 0 194.563763 158.435869 352.999632 352.999632 352.999633 194.563763 0 352.999632-158.435869 352.999633-352.999633 0-194.563763-158.435869-352.999632-352.999633-352.999632z" fill="#333333" p-id="2320"></path><path d="M538.907755 347.354649l-14.676957 10.16097c-5.268651 3.763322-8.279309 10.16097-7.902977 16.558618l1.505329 17.687615c1.881661 18.440279-22.203602 27.095921-32.740905 12.042632l-10.16097-14.676957c-3.763322-5.268651-10.16097-8.279309-16.558618-7.902977l-17.687615 1.505329c-18.440279 1.881661-27.095921-22.203602-12.042631-32.740904l14.676957-10.160971c5.268651-3.763322 8.279309-10.16097 7.902977-16.558618l-1.505329-17.687615c-1.881661-18.440279 22.203602-27.095921 32.740904-12.042631l10.16097 14.676957c3.763322 5.268651 10.16097 8.279309 16.558618 7.902977l17.687615-1.505329c18.816612-1.881661 27.472253 22.203602 12.042632 32.740904z" fill="#FFAC48" p-id="2321"></path><path d="M499.769202 430.524072c-11.666299 0-22.956266-5.644983-29.730246-15.805954l-10.16097-14.676957-17.311283 1.505329c-16.558618 1.505329-31.98824-7.902977-37.633223-23.70893-6.021316-16.182286-0.752664-33.493569 13.171628-43.278207l14.676957-10.16097-1.505329-17.311283c-1.505329-16.558618 7.902977-31.98824 23.708931-37.633223 16.182286-6.021316 33.493569-0.752664 43.278207 13.171628L508.048512 297.302462l17.311282-1.505329c16.93495-1.881661 32.364572 7.902977 38.009556 24.085263 6.021316 16.182286 0.376332 33.117236-13.924293 42.901874l-14.300625 10.160971 1.505329 17.311282c1.505329 16.558618-7.902977 31.98824-23.70893 37.633223-4.515987 1.881661-9.031974 2.634326-13.171629 2.634326z m-40.267548-68.116134c12.042631 0 23.708931 6.021316 30.859243 15.805954l8.655641 12.418964-1.128997-15.429622c-0.752664-12.795296 5.268651-25.590592 15.805954-33.117236l12.418964-8.655642-15.429622 1.128997c-12.795296 0.752664-25.590592-5.268651-33.117236-15.805954l-8.655641-12.418963 1.128996 15.429621c0.752664 12.795296-5.268651 25.590592-15.805953 33.117237l-12.418964 8.655641 15.429621-1.128997h2.257994z" fill="#333333" p-id="2322"></path><path d="M714.278574 304.452775c-71.126792 51.933848-121.178978 39.514884-150.15656 0-28.977582-39.514884-25.966924-91.0724 45.159868-143.38258s211.875046-45.159868 211.875046-45.159868-36.127894 136.232268-106.878354 188.542448z" fill="#229456" p-id="2323"></path><path d="M628.474825 357.891951c-42.14921 0-67.739802-26.343256-79.782432-42.525542-19.192944-25.966924-52.686512-94.835722 49.299522-169.725836 75.642778-55.69717 217.896362-48.92319 223.917677-48.92319l23.332598 1.128997-6.021315 22.579934c-1.505329 5.644983-38.76222 143.38258-114.028666 198.703418-38.76222 28.977582-70.750459 38.76222-96.717384 38.762219z m167.091511-223.165012c-41.772878 0.752664-127.200294 6.397648-175.37082 41.772877-37.633223 27.848585-75.266446 70.374127-41.020213 117.039324 34.246233 46.665197 86.180081 23.332598 123.813304-4.139655 47.794193-35.37523 79.406101-115.157663 92.577729-154.672546z" fill="#333333" p-id="2324"></path></svg>